<mxfile host="Electron" modified="2024-02-03T05:37:12.309Z" agent="Mozilla/5.0 (Windows NT 10.0; Win64; x64) AppleWebKit/537.36 (KHTML, like Gecko) draw.io/23.0.2 Chrome/120.0.6099.109 Electron/28.1.0 Safari/537.36" etag="12tuYy3TEBnBbR0c_dCw" version="23.0.2" type="device">
  <diagram name="ページ1" id="LE8fIzdrHe0wcv1LTvfw">
    <mxGraphModel dx="850" dy="502" grid="1" gridSize="10" guides="1" tooltips="1" connect="1" arrows="1" fold="1" page="1" pageScale="1" pageWidth="1600" pageHeight="1200" math="0" shadow="0">
      <root>
        <mxCell id="0" />
        <mxCell id="cFaB45KztUIKXS-_cTrr-4" value="背景" style="locked=1;" parent="0" visible="0" />
        <mxCell id="cFaB45KztUIKXS-_cTrr-5" value="" style="rounded=0;whiteSpace=wrap;html=1;strokeWidth=3;" parent="cFaB45KztUIKXS-_cTrr-4" vertex="1">
          <mxGeometry x="1" y="1" width="1595" height="1180" as="geometry" />
        </mxCell>
        <mxCell id="cFaB45KztUIKXS-_cTrr-6" value="" style="rounded=0;whiteSpace=wrap;html=1;fillColor=#B3B3B3;fontColor=#333333;strokeColor=#666666;" parent="cFaB45KztUIKXS-_cTrr-4" vertex="1">
          <mxGeometry width="1595" height="60" as="geometry" />
        </mxCell>
        <mxCell id="cFaB45KztUIKXS-_cTrr-7" value="&lt;font style=&quot;font-size: 48px;&quot;&gt;×&lt;/font&gt;" style="rounded=0;whiteSpace=wrap;html=1;" parent="cFaB45KztUIKXS-_cTrr-4" vertex="1">
          <mxGeometry x="1550" y="10" width="40" height="40" as="geometry" />
        </mxCell>
        <mxCell id="cFaB45KztUIKXS-_cTrr-8" value="" style="rounded=0;whiteSpace=wrap;html=1;" parent="cFaB45KztUIKXS-_cTrr-4" vertex="1">
          <mxGeometry x="830" y="670" width="120" height="60" as="geometry" />
        </mxCell>
        <mxCell id="cFaB45KztUIKXS-_cTrr-9" value="ウインドウ" style="locked=1;" parent="0" />
        <mxCell id="cFaB45KztUIKXS-_cTrr-10" value="" style="rounded=0;whiteSpace=wrap;html=1;strokeWidth=3;" parent="cFaB45KztUIKXS-_cTrr-9" vertex="1">
          <mxGeometry x="1" y="1" width="1595" height="1180" as="geometry" />
        </mxCell>
        <mxCell id="cFaB45KztUIKXS-_cTrr-11" value="" style="rounded=0;whiteSpace=wrap;html=1;fillColor=#B3B3B3;fontColor=#333333;strokeColor=#666666;" parent="cFaB45KztUIKXS-_cTrr-9" vertex="1">
          <mxGeometry width="1595" height="60" as="geometry" />
        </mxCell>
        <mxCell id="cFaB45KztUIKXS-_cTrr-12" value="&lt;font style=&quot;font-size: 48px;&quot;&gt;×&lt;/font&gt;" style="rounded=0;whiteSpace=wrap;html=1;" parent="cFaB45KztUIKXS-_cTrr-9" vertex="1">
          <mxGeometry x="1550" y="10" width="40" height="40" as="geometry" />
        </mxCell>
        <mxCell id="cFaB45KztUIKXS-_cTrr-14" value="名称未設定レイヤ" style="" parent="0" />
        <mxCell id="bMRDDl92_SAq192Mb1gc-0" value="&lt;span style=&quot;font-size: 30px;&quot;&gt;住所&lt;/span&gt;" style="rounded=0;whiteSpace=wrap;html=1;align=right;dashed=1;dashPattern=8 8;verticalAlign=bottom;" parent="cFaB45KztUIKXS-_cTrr-14" vertex="1">
          <mxGeometry x="76" y="317" width="310" height="46" as="geometry" />
        </mxCell>
        <mxCell id="bMRDDl92_SAq192Mb1gc-1" value="&lt;span style=&quot;font-size: 30px;&quot;&gt;123&lt;br&gt;&lt;/span&gt;" style="rounded=0;whiteSpace=wrap;html=1;align=right;fillColor=#CCCCCC;" parent="cFaB45KztUIKXS-_cTrr-14" vertex="1">
          <mxGeometry x="410" y="374" width="170" height="48" as="geometry" />
        </mxCell>
        <mxCell id="bMRDDl92_SAq192Mb1gc-2" value="&lt;span style=&quot;font-size: 30px;&quot;&gt;郵便番号&lt;/span&gt;" style="rounded=0;whiteSpace=wrap;html=1;align=right;dashed=1;dashPattern=8 8;verticalAlign=bottom;" parent="cFaB45KztUIKXS-_cTrr-14" vertex="1">
          <mxGeometry x="80" y="376" width="310" height="46" as="geometry" />
        </mxCell>
        <mxCell id="bMRDDl92_SAq192Mb1gc-3" value="&lt;span style=&quot;font-size: 30px;&quot;&gt;456x&lt;br&gt;&lt;/span&gt;" style="rounded=0;whiteSpace=wrap;html=1;align=right;fillColor=#CCCCCC;" parent="cFaB45KztUIKXS-_cTrr-14" vertex="1">
          <mxGeometry x="640" y="374" width="170" height="48" as="geometry" />
        </mxCell>
        <mxCell id="bMRDDl92_SAq192Mb1gc-4" value="&lt;span style=&quot;font-size: 30px;&quot;&gt;住所(郵便番号)&lt;/span&gt;" style="rounded=0;whiteSpace=wrap;html=1;align=right;dashed=1;dashPattern=8 8;verticalAlign=bottom;" parent="cFaB45KztUIKXS-_cTrr-14" vertex="1">
          <mxGeometry x="80" y="436" width="310" height="46" as="geometry" />
        </mxCell>
        <mxCell id="bMRDDl92_SAq192Mb1gc-10" value="&lt;span style=&quot;font-size: 30px;&quot;&gt;氏名&lt;/span&gt;" style="rounded=0;whiteSpace=wrap;html=1;align=right;dashed=1;dashPattern=8 8;verticalAlign=bottom;" parent="cFaB45KztUIKXS-_cTrr-14" vertex="1">
          <mxGeometry x="100" y="127" width="290" height="46" as="geometry" />
        </mxCell>
        <mxCell id="bMRDDl92_SAq192Mb1gc-11" value="&lt;span style=&quot;font-size: 30px;&quot;&gt;－&lt;/span&gt;" style="rounded=0;whiteSpace=wrap;html=1;align=right;dashed=1;dashPattern=8 8;verticalAlign=bottom;" parent="cFaB45KztUIKXS-_cTrr-14" vertex="1">
          <mxGeometry x="591" y="376" width="40" height="46" as="geometry" />
        </mxCell>
        <mxCell id="bMRDDl92_SAq192Mb1gc-12" value="&lt;span style=&quot;font-size: 30px;&quot;&gt;生年月日&lt;/span&gt;" style="rounded=0;whiteSpace=wrap;html=1;align=right;dashed=1;dashPattern=8 8;verticalAlign=bottom;" parent="cFaB45KztUIKXS-_cTrr-14" vertex="1">
          <mxGeometry x="80" y="580" width="310" height="46" as="geometry" />
        </mxCell>
        <mxCell id="bMRDDl92_SAq192Mb1gc-13" value="&lt;font style=&quot;font-size: 30px;&quot;&gt;20221201&lt;/font&gt;" style="rounded=0;whiteSpace=wrap;html=1;align=right;fillColor=#CCCCCC;" parent="cFaB45KztUIKXS-_cTrr-14" vertex="1">
          <mxGeometry x="410" y="578" width="250" height="48" as="geometry" />
        </mxCell>
        <mxCell id="bMRDDl92_SAq192Mb1gc-14" value="&lt;span style=&quot;font-size: 30px;&quot;&gt;選任年月日&lt;/span&gt;" style="rounded=0;whiteSpace=wrap;html=1;align=right;dashed=1;dashPattern=8 8;verticalAlign=bottom;" parent="cFaB45KztUIKXS-_cTrr-14" vertex="1">
          <mxGeometry x="80" y="650" width="310" height="46" as="geometry" />
        </mxCell>
        <mxCell id="bMRDDl92_SAq192Mb1gc-15" value="&lt;font style=&quot;font-size: 30px;&quot;&gt;20221201&lt;/font&gt;" style="rounded=0;whiteSpace=wrap;html=1;align=right;fillColor=#CCCCCC;" parent="cFaB45KztUIKXS-_cTrr-14" vertex="1">
          <mxGeometry x="410" y="648" width="250" height="48" as="geometry" />
        </mxCell>
        <mxCell id="bMRDDl92_SAq192Mb1gc-16" value="&lt;span style=&quot;font-size: 30px;&quot;&gt;&lt;b&gt;会計責任者職務代行者の入力項目&lt;/b&gt;&lt;/span&gt;" style="rounded=0;whiteSpace=wrap;html=1;align=left;dashed=1;dashPattern=8 8;verticalAlign=bottom;" parent="cFaB45KztUIKXS-_cTrr-14" vertex="1">
          <mxGeometry x="40" y="67" width="520" height="46" as="geometry" />
        </mxCell>
        <mxCell id="bMRDDl92_SAq192Mb1gc-17" value="&lt;span style=&quot;font-size: 30px;&quot;&gt;政治団体&lt;/span&gt;" style="rounded=0;whiteSpace=wrap;html=1;align=left;fillColor=#CCCCCC;" parent="cFaB45KztUIKXS-_cTrr-14" vertex="1">
          <mxGeometry x="410" y="129" width="250" height="48" as="geometry" />
        </mxCell>
        <mxCell id="bMRDDl92_SAq192Mb1gc-18" value="&lt;span style=&quot;font-size: 30px;&quot;&gt;太郎&lt;/span&gt;" style="rounded=0;whiteSpace=wrap;html=1;align=left;fillColor=#CCCCCC;" parent="cFaB45KztUIKXS-_cTrr-14" vertex="1">
          <mxGeometry x="740" y="129" width="250" height="48" as="geometry" />
        </mxCell>
        <mxCell id="bMRDDl92_SAq192Mb1gc-19" value="&lt;span style=&quot;font-size: 30px;&quot;&gt;(姓)&lt;/span&gt;" style="rounded=0;whiteSpace=wrap;html=1;align=right;dashed=1;dashPattern=8 8;verticalAlign=bottom;" parent="cFaB45KztUIKXS-_cTrr-14" vertex="1">
          <mxGeometry x="664" y="130" width="50" height="46" as="geometry" />
        </mxCell>
        <mxCell id="bMRDDl92_SAq192Mb1gc-20" value="&lt;span style=&quot;font-size: 30px;&quot;&gt;(名)&lt;/span&gt;" style="rounded=0;whiteSpace=wrap;html=1;align=right;dashed=1;dashPattern=8 8;verticalAlign=bottom;" parent="cFaB45KztUIKXS-_cTrr-14" vertex="1">
          <mxGeometry x="994" y="130" width="50" height="46" as="geometry" />
        </mxCell>
        <mxCell id="bMRDDl92_SAq192Mb1gc-21" value="&lt;font style=&quot;font-size: 30px;&quot;&gt;0123&lt;/font&gt;" style="rounded=0;whiteSpace=wrap;html=1;align=right;fillColor=#CCCCCC;" parent="cFaB45KztUIKXS-_cTrr-14" vertex="1">
          <mxGeometry x="407" y="254" width="170" height="48" as="geometry" />
        </mxCell>
        <mxCell id="bMRDDl92_SAq192Mb1gc-22" value="&lt;span style=&quot;font-size: 30px;&quot;&gt;電話番号&lt;/span&gt;" style="rounded=0;whiteSpace=wrap;html=1;align=right;dashed=1;dashPattern=8 8;verticalAlign=bottom;" parent="cFaB45KztUIKXS-_cTrr-14" vertex="1">
          <mxGeometry x="77" y="256" width="310" height="46" as="geometry" />
        </mxCell>
        <mxCell id="bMRDDl92_SAq192Mb1gc-23" value="&lt;span style=&quot;font-size: 30px;&quot;&gt;45&lt;br&gt;&lt;/span&gt;" style="rounded=0;whiteSpace=wrap;html=1;align=right;fillColor=#CCCCCC;" parent="cFaB45KztUIKXS-_cTrr-14" vertex="1">
          <mxGeometry x="637" y="254" width="170" height="48" as="geometry" />
        </mxCell>
        <mxCell id="bMRDDl92_SAq192Mb1gc-24" value="&lt;span style=&quot;font-size: 30px;&quot;&gt;－&lt;/span&gt;" style="rounded=0;whiteSpace=wrap;html=1;align=right;dashed=1;dashPattern=8 8;verticalAlign=bottom;" parent="cFaB45KztUIKXS-_cTrr-14" vertex="1">
          <mxGeometry x="588" y="256" width="40" height="46" as="geometry" />
        </mxCell>
        <mxCell id="bMRDDl92_SAq192Mb1gc-25" value="&lt;span style=&quot;font-size: 30px;&quot;&gt;678z&lt;br&gt;&lt;/span&gt;" style="rounded=0;whiteSpace=wrap;html=1;align=right;fillColor=#CCCCCC;" parent="cFaB45KztUIKXS-_cTrr-14" vertex="1">
          <mxGeometry x="877" y="254" width="170" height="48" as="geometry" />
        </mxCell>
        <mxCell id="bMRDDl92_SAq192Mb1gc-26" value="&lt;span style=&quot;font-size: 30px;&quot;&gt;－&lt;/span&gt;" style="rounded=0;whiteSpace=wrap;html=1;align=right;dashed=1;dashPattern=8 8;verticalAlign=bottom;" parent="cFaB45KztUIKXS-_cTrr-14" vertex="1">
          <mxGeometry x="828" y="256" width="40" height="46" as="geometry" />
        </mxCell>
        <mxCell id="0UqAQfp40l2s8gUVmywF-0" value="&lt;span style=&quot;font-size: 30px;&quot;&gt;ふりがな&lt;/span&gt;" style="rounded=0;whiteSpace=wrap;html=1;align=right;dashed=1;dashPattern=8 8;verticalAlign=bottom;" parent="cFaB45KztUIKXS-_cTrr-14" vertex="1">
          <mxGeometry x="100" y="187" width="290" height="46" as="geometry" />
        </mxCell>
        <mxCell id="0UqAQfp40l2s8gUVmywF-1" value="&lt;span style=&quot;font-size: 30px;&quot;&gt;せいじだんたい&lt;/span&gt;" style="rounded=0;whiteSpace=wrap;html=1;align=left;fillColor=#CCCCCC;" parent="cFaB45KztUIKXS-_cTrr-14" vertex="1">
          <mxGeometry x="410" y="189" width="250" height="48" as="geometry" />
        </mxCell>
        <mxCell id="0UqAQfp40l2s8gUVmywF-2" value="&lt;span style=&quot;font-size: 30px;&quot;&gt;たろう&lt;/span&gt;" style="rounded=0;whiteSpace=wrap;html=1;align=left;fillColor=#CCCCCC;" parent="cFaB45KztUIKXS-_cTrr-14" vertex="1">
          <mxGeometry x="740" y="189" width="250" height="48" as="geometry" />
        </mxCell>
        <mxCell id="0UqAQfp40l2s8gUVmywF-3" value="&lt;span style=&quot;font-size: 30px;&quot;&gt;(姓)&lt;/span&gt;" style="rounded=0;whiteSpace=wrap;html=1;align=right;dashed=1;dashPattern=8 8;verticalAlign=bottom;" parent="cFaB45KztUIKXS-_cTrr-14" vertex="1">
          <mxGeometry x="664" y="190" width="50" height="46" as="geometry" />
        </mxCell>
        <mxCell id="0UqAQfp40l2s8gUVmywF-4" value="&lt;span style=&quot;font-size: 30px;&quot;&gt;(名)&lt;/span&gt;" style="rounded=0;whiteSpace=wrap;html=1;align=right;dashed=1;dashPattern=8 8;verticalAlign=bottom;" parent="cFaB45KztUIKXS-_cTrr-14" vertex="1">
          <mxGeometry x="994" y="190" width="50" height="46" as="geometry" />
        </mxCell>
        <mxCell id="ZtpJ9DWrZzrSjcmuXunf-0" value="&lt;span style=&quot;font-size: 30px;&quot;&gt;東京都千代田区霞ケ浦x丁目y番地zzzabcビル3Fqqq号室&lt;/span&gt;" style="rounded=0;whiteSpace=wrap;html=1;align=left;fillColor=#CCCCCC;verticalAlign=top;" parent="cFaB45KztUIKXS-_cTrr-14" vertex="1">
          <mxGeometry x="410" y="437" width="920" height="125" as="geometry" />
        </mxCell>
      </root>
    </mxGraphModel>
  </diagram>
</mxfile>
